<svg width="64" height="64" version="1.1" viewBox="0 0 16.9 16.9" xmlns="http://www.w3.org/2000/svg">
 <rect x="-1.39e-17" width="16.9" height="16.9" ry="3.16" fill="#f5f5f5" stroke-linecap="round" stroke-linejoin="round" stroke-width=".0128"/>
 <g fill="#419f41">
  <rect x="1.32" y="3.18" width="9.52" height="4.23" ry=".886"/>
  <rect transform="rotate(-45)" x="-.408" y="4.11" width="1.25" height="1.25"/>
 </g>
 <g fill="#4b9fd5">
  <rect x="6.35" y="9.26" width="9.52" height="4.23" ry=".886"/>
  <rect transform="rotate(-45)" x="2.44" y="15.6" width="1.25" height="1.25"/>
 </g>
 <path d="m2.38 4.63h4.5" fill="none" stroke="#f2f2f2" stroke-width=".265"/>
 <path d="m7.67 4.63h2.12" fill="none" stroke="#f2f2f2" stroke-width=".265"/>
 <path d="m14.8 10.7h-4.5" fill="none" stroke="#f2f2f2" stroke-width=".265"/>
 <path d="m9.53 10.7h-2.12" fill="none" stroke="#f2f2f2" stroke-width=".265"/>
 <path d="m12.7 11.8h-5.29" fill="none" stroke="#f2f2f2" stroke-width=".265"/>
 <path d="m2.38 5.69h2.12" fill="none" stroke="#f2f2f2" stroke-width=".265"/>
 <path d="m5.29 5.69h2.12" fill="none" stroke="#f2f2f2" stroke-width=".265"/>
 <g transform="matrix(.76 0 0 .76 8.49 3.45)" stroke-linecap="round" stroke-linejoin="round">
  <path d="m-7.05 7.08a2.65 2.65 0 00-2.64 2.59h-.00103v.0605a2.65 2.65 0 000 .00517v5.92h1.33v-5.96h.000517c.0163-.713.598-1.28 1.31-1.28h.00258c.714 9.24e-5 1.3.57 1.31 1.28h.000517v5.96h1.33v-5.92a2.65 2.65 0 000-.00517v-.0553h-.00103a2.65 2.65 0 00-2.64-2.59 2.65 2.65 0 00-.00517 0z" fill="#666" stroke-width=".789"/>
  <rect x="-10.9" y="11.6" width="7.74" height="5.98" fill="#333" stroke-width=".923"/>
 </g>
</svg>
